<svg width="120" height="120" viewBox="0 0 120 120" fill="none" xmlns="http://www.w3.org/2000/svg">
<path fill-rule="evenodd" clip-rule="evenodd" d="M57.2575 8.215C58.955 7.2625 61.045 7.2625 62.74 8.215C71.1275 12.9225 96.3675 27.0925 104.757 31.8C106.455 32.75 107.5 34.51 107.5 36.415C107.5 45.83 107.5 74.1675 107.5 83.5825C107.5 85.4875 106.455 87.2475 104.757 88.2C96.37 92.9075 71.13 107.078 62.74 111.785C61.0425 112.738 58.9525 112.738 57.2575 111.785C48.87 107.078 23.63 92.9075 15.24 88.2C13.545 87.2475 12.5 85.49 12.5 83.585C12.5 74.17 12.5 45.8325 12.5 36.4175C12.5 34.5125 13.545 32.7525 15.2425 31.8C23.6275 27.0925 48.8725 12.9225 57.2575 8.215Z" fill="white"/>
<path fill-rule="evenodd" clip-rule="evenodd" d="M13.26 86.01C12.595 85.12 12.5 84.275 12.5 83.1375C12.5 73.7775 12.5 45.6025 12.5 36.24C12.5 34.345 13.5425 32.595 15.235 31.65C23.5925 26.97 48.7475 12.8825 57.105 8.2C58.7975 7.2525 61.09 7.2725 62.7825 8.22C71.14 12.9 96.21 26.8675 104.567 31.5475C105.243 31.9275 105.757 32.385 106.217 32.9875L13.26 86.01Z" fill="white"/>
<path fill-rule="evenodd" clip-rule="evenodd" d="M60 25C79.3175 25 95 40.6825 95 60C95 79.3175 79.3175 95 60 95C40.6825 95 25 79.3175 25 60C25 40.6825 40.6825 25 60 25ZM60 42.5C69.6575 42.5 77.5 50.34 77.5 60C77.5 69.6575 69.6575 77.5 60 77.5C50.3425 77.5 42.5 69.6575 42.5 60C42.5 50.34 50.34 42.5 60 42.5Z" fill="#2A1B3D"/>
<path fill-rule="evenodd" clip-rule="evenodd" d="M106.212 33.0125C107.502 34.22 107.477 36.04 107.477 37.4725C107.477 46.96 107.397 73.945 107.5 83.4325C107.51 84.4225 107.182 85.465 106.692 86.25L58.9824 60L106.212 33.0125Z" fill="white"/>
<path fill-rule="evenodd" clip-rule="evenodd" d="M77.5 52.5H82.5V67.5H77.5V52.5ZM95 52.5H100V67.5H95V52.5Z" fill="#2A1B3D"/>
<path fill-rule="evenodd" clip-rule="evenodd" d="M72.5 57.5H87.5V62.5H72.5V57.5ZM90 57.5H105V62.5H90V57.5Z" fill="#2A1B3D"/>
</svg>
