<svg width="120" height="120" viewBox="0 0 120 120" fill="none" xmlns="http://www.w3.org/2000/svg">
<path d="M109.955 59.0875C110.127 48.435 107.728 35.7675 102.728 20.905L98.8075 9.25L93.4825 20.3325C93.1975 20.925 92.8725 21.505 92.5325 22.0775C83.785 14.5675 72.435 10 60 10C32.385 10 10 32.385 10 60C10 87.615 32.385 110 60 110C87.615 110 110 87.615 110 60C110 59.6925 109.96 59.395 109.955 59.0875Z" fill="white"/>
<path d="M98.4625 81.395C90.655 92.15 76.835 92.7275 63.8275 92.5H46.8751H42.0301C53.1001 88.5175 59.6875 87.57 66.4151 84C79.085 77.3375 91.6101 62.76 94.2176 47.595C89.3926 62.185 74.77 74.72 61.445 79.8175C52.315 83.3 35.8251 86.68 35.8251 86.68L35.1575 86.3175C23.9326 80.67 23.5926 55.535 44.0001 47.42C52.9351 43.8625 61.4826 45.8175 71.1351 43.4375C81.4401 40.9075 93.3601 32.9175 98.2101 22.5C103.64 39.1675 110.175 65.265 98.4625 81.395ZM39.1701 96.1125C38.4651 96.9875 37.3876 97.5 36.2626 97.5C34.2051 97.5 32.5251 95.8075 32.5251 93.75C32.5251 91.6925 34.2176 90 36.2626 90C37.1151 90 37.9551 90.295 38.6151 90.84C40.2151 92.1375 40.4651 94.5125 39.1701 96.1125Z" fill="#2A1B3D"/>
</svg>
